<?xml version="1.0" encoding="utf-8"?>
<!-- Generator: Adobe Illustrator 16.0.3, SVG Export Plug-In . SVG Version: 6.00 Build 0)  -->
<!DOCTYPE svg PUBLIC "-//W3C//DTD SVG 1.1//EN" "http://www.w3.org/Graphics/SVG/1.1/DTD/svg11.dtd">
<svg version="1.1"
	 id="GUIDE" xmlns:dc="http://purl.org/dc/elements/1.1/" xmlns:inkscape="http://www.inkscape.org/namespaces/inkscape" xmlns:sodipodi="http://sodipodi.sourceforge.net/DTD/sodipodi-0.dtd" xmlns:svg="http://www.w3.org/2000/svg" xmlns:rdf="http://www.w3.org/1999/02/22-rdf-syntax-ns#" xmlns:cc="http://creativecommons.org/ns#"
	 xmlns="http://www.w3.org/2000/svg" xmlns:xlink="http://www.w3.org/1999/xlink" x="0px" y="0px" width="800px" height="800px"
	 viewBox="0 0 800 800" enable-background="new 0 0 800 800" xml:space="preserve">
<g>
	<path fill="#6D1E3A" d="M618.109,655.564c-0.327,0.025-0.641,0.033-0.968,0.033c-7.689,0-14.171-6.746-14.708-15.507
		c-0.028-0.346-2.413-35.299-25.703-78.634c-30.904-57.503-84.682-103.844-155.504-134.038c-5.736-2.45-9.521-8.644-9.521-15.55
		V58.301c0-9.181,6.601-16.62,14.751-16.62s14.751,7.439,14.751,16.62v342.222c92.027,41.835,138.711,101.914,161.791,145.636
		c26.36,49.939,28.805,90.172,28.895,91.851C632.384,647.147,626.216,654.978,618.109,655.564z"/>
	<path fill="#6D1E3A" d="M583.719,630.942c3.949,8.021,1.386,18.109-5.723,22.575c-2.264,1.426-4.738,2.105-7.166,2.105
		c-5.172,0-10.192-3.063-12.904-8.501c-0.149-0.318-16.197-32.141-49.635-64.753c-44.373-43.285-96.868-67.487-156.039-71.943
		c-7.748-0.59-13.769-7.839-13.769-16.593v-353.97c0-9.181,6.617-16.625,14.767-16.625c8.136,0,14.752,7.443,14.752,16.625v338.781
		c75.129,9.465,128.457,47.952,160.584,79.547C565.539,594.555,582.988,629.475,583.719,630.942z"/>
	<path fill="#6D1E3A" d="M515.966,649.052c-2.905,4.313-7.317,6.589-11.772,6.589c-3.113,0-6.243-1.1-8.91-3.383
		c-83.95-71.668-207.059-58.827-208.281-58.693c-4.157,0.462-8.27-1.058-11.37-4.204c-3.099-3.147-4.872-7.629-4.872-12.328V204.704
		c0-9.181,6.615-16.624,14.767-16.624c8.15,0,14.751,7.443,14.751,16.624v354.714c38.653-1.368,137.698,2.197,212.841,66.354
		C519.615,631.312,520.884,641.743,515.966,649.052z"/>
	<path fill="#6D1E3A" d="M215.478,255.014c10.863,0,19.669,9.92,19.669,22.155v396.773h402.287c10.863,0,19.671,9.929,19.671,22.172
		c0,12.236-8.808,22.155-19.671,22.155H215.478c-10.863,0-19.668-9.919-19.668-22.155V277.169
		C195.81,264.934,204.615,255.014,215.478,255.014z"/>
</g>
</svg>
