<svg id="Layer_1" data-name="Layer 1" xmlns="http://www.w3.org/2000/svg" viewBox="0 0 96 96"><path d="M46.18,36.12a1,1,0,0,1-.76-.34,1.05,1.05,0,0,1-.21-.92l1.24-4.62c-1.38-2.55-1.13-9.65,2.19-15.74C55.47,2.75,72.71,2,73.44,2a.94.94,0,0,1,.91.53,1,1,0,0,1-.07,1.05c-.69,1-3.49,6.62-5.2,10.18a1.06,1.06,0,0,1-.36.4l-2,1.28a1.06,1.06,0,0,1,.66.39,1,1,0,0,1,.12,1c-4.66,11.3-13.19,14-15.52,14.53l-1.46,3.73a1,1,0,0,1-.81.62l-3.42.42Zm25.46-32c-4.55.53-16.25,2.71-21.26,11.32-3.52,6.46-2.93,13-2.09,13.93a1,1,0,0,1,.21.91l-1,3.63,1.36-.17,1.44-3.68a1,1,0,0,1,.78-.62C51.48,29.42,60,28,65,17.63l-2.22.26a1,1,0,0,1-.66-1.84l5.32-3.42C68,11.36,70.22,6.81,71.64,4.16Z"/><path d="M50.41,26.37a1.09,1.09,0,0,1-.39-.08A1,1,0,0,1,49.49,25,40.92,40.92,0,0,1,60.73,9.39a1,1,0,0,1,1.4.14A1,1,0,0,1,62,10.94,39.08,39.08,0,0,0,51.33,25.75,1,1,0,0,1,50.41,26.37Z"/><path d="M48,45.67c-1.75,0-17.06-.13-17.06-4.38S46.25,36.92,48,36.92s17.06.12,17.06,4.37S49.75,45.67,48,45.67ZM33,41.29c.76.9,6.13,2.38,15,2.38s14.25-1.48,15-2.38c-.76-.9-6.13-2.37-15-2.37S33.75,40.39,33,41.29Zm30.09.09h0Z"/><path d="M48,50c-6.92,0-15.52-1-17-3.93a1,1,0,0,1,.46-1.34,1,1,0,0,1,1.33.45C33.32,46.2,38.27,48,48,48c9.39,0,14.6-1.68,15.17-2.82a1,1,0,0,1,1.33-.45A1,1,0,0,1,65,46.11C63.52,49,55.25,50,48,50Z"/><path d="M64.06,46.67a1,1,0,0,1-1-1v-4a1,1,0,0,1,2,0v4A1,1,0,0,1,64.06,46.67Z"/><path d="M46,94c-16.82,0-24.83-4-25.18-4.18a1,1,0,0,1-.54-.89V66.39a5.58,5.58,0,0,1,2.54-4.69L35.2,53.58l-4.13-7.43a1,1,0,1,1,1.74-1l4.59,8.24a1,1,0,0,1-.32,1.33L23.91,63.37a3.6,3.6,0,0,0-1.63,3v21.9c2.14.9,10.57,4,25.7,3.69a1,1,0,0,1,1,1,1,1,0,0,1-1,1Z"/><path d="M50,94l-2,0a1,1,0,0,1,0-2c15.13.31,23.56-2.79,25.7-3.69V66.39a3.6,3.6,0,0,0-1.63-3L58.92,54.75a1,1,0,0,1-.32-1.33l4.59-8.24a1,1,0,1,1,1.74,1L60.8,53.58,73.18,61.7a5.58,5.58,0,0,1,2.54,4.69V88.93a1,1,0,0,1-.54.89C74.83,90,66.81,94,50,94Z"/><path d="M31.94,46.67a1,1,0,0,1-1-1V41.29a1,1,0,1,1,2,0v4.38A1,1,0,0,1,31.94,46.67Z"/><path d="M21.28,67.93A1,1,0,0,1,20.91,66c.26-.1,25.9-9.89,54.12-.83a1,1,0,0,1-.61,1.91c-27.52-8.84-52.53.69-52.78.79A1.13,1.13,0,0,1,21.28,67.93Z"/></svg>