<?xml version="1.0" ?><!DOCTYPE svg  PUBLIC '-//W3C//DTD SVG 1.1//EN'  'http://www.w3.org/Graphics/SVG/1.1/DTD/svg11.dtd'><svg enable-background="new 0 0 48 48" height="48px" id="_x3C_Layer_x3E_" version="1.1" viewBox="0 0 48 48" width="48px" xml:space="preserve" xmlns="http://www.w3.org/2000/svg" xmlns:xlink="http://www.w3.org/1999/xlink"><g id="write_x2C__pen_x2C__sheet"><path d="M45,45H8.5C4.916,45,2,42.084,2,38.5C2,38.224,2.224,38,2.5,38S3,38.224,3,38.5C3,41.533,5.467,44,8.5,44   H45V16H34.625c-0.276,0-0.5-0.224-0.5-0.5s0.224-0.5,0.5-0.5H45c0.551,0,1,0.449,1,1v28C46,44.551,45.551,45,45,45z" fill="#546E7A"/><path d="M24.469,16H12.5c-0.276,0-0.5-0.224-0.5-0.5s0.224-0.5,0.5-0.5h11.969c0.276,0,0.5,0.224,0.5,0.5   S24.745,16,24.469,16z" fill="#546E7A"/><g><path d="M2.5,39C2.224,39,2,38.776,2,38.5v-29C2,5.916,4.916,3,8.5,3H10c0.551,0,1,0.449,1,1v28    c0,0.551-0.449,1-1,1H8.5C5.467,33,3,35.467,3,38.5C3,38.776,2.776,39,2.5,39z M8.5,4C5.467,4,3,6.467,3,9.5v25.539    C4.152,33.214,6.187,32,8.5,32H10V4H8.5z" fill="#546E7A"/></g><g><path d="M34.046,2.617c-0.624-0.167-1.241-0.123-1.754,0.075c0.398,0.166,0.724,0.43,0.92,0.82    c0.186-0.003,0.38,0.019,0.576,0.071c0.785,0.21,1.33,0.831,1.19,1.354l-3.753,14.006c-0.071,0.267,0.087,0.541,0.354,0.612    c0.043,0.012,0.087,0.017,0.13,0.017c0.221,0,0.423-0.147,0.482-0.371l3.753-14.006C36.229,4.131,35.378,2.974,34.046,2.617z" fill="#546E7A"/><path d="M21.504,42.202c-0.043,0-0.086-0.005-0.13-0.017c-0.267-0.071-0.425-0.346-0.354-0.612l0.388-1.448    c0.072-0.267,0.348-0.423,0.612-0.354c0.267,0.071,0.425,0.346,0.354,0.612l-0.388,1.448    C21.926,42.055,21.725,42.202,21.504,42.202z" fill="#546E7A"/><g><g><path d="M22.25,30.993c0.011,0.006,0.031,0.024,0.043,0.033l0.05-0.187L22.25,30.993z" fill="#546E7A"/><path d="M32.114,2.099c-1.511-0.405-2.705,0.438-3.19,2.251l-6.988,26.08l0.483,0.129l2.2-8.21l0.483,0.129      l4.788-17.87c0.343-1.282,1.005-1.799,1.966-1.544c0.961,0.258,1.275,1.039,0.932,2.32l-4.789,17.87l0.483,0.129l-2.2,8.21      l0.483,0.129l6.988-26.08C34.24,3.83,33.627,2.505,32.114,2.099z" fill="#546E7A"/><path d="M26.157,32.061c0.016-0.001,0.042-0.006,0.054-0.007l0.057-0.407L26.157,32.061z" fill="#546E7A"/></g><path d="M22.775,38.871c-0.179,0-0.345-0.027-0.495-0.067c-0.652-0.174-1.444-0.732-1.516-2.402     c-0.04-0.913,0.137-2.11,0.525-3.557l2.977-11.108l4.83,1.294l-2.977,11.108c-0.397,1.483-0.832,2.582-1.329,3.359     C24.103,38.574,23.372,38.871,22.775,38.871z M24.972,22.962l-2.718,10.142c-0.361,1.349-0.527,2.444-0.492,3.255     c0.056,1.287,0.598,1.432,0.776,1.479c0.178,0.046,0.723,0.193,1.408-0.878c0.435-0.681,0.84-1.716,1.206-3.08l2.718-10.142     L24.972,22.962z" fill="#546E7A"/></g></g></g></svg>