<?xml version="1.0" encoding="UTF-8" standalone="no"?>
<svg
   xmlns:dc="http://purl.org/dc/elements/1.1/"
   xmlns:cc="http://creativecommons.org/ns#"
   xmlns:rdf="http://www.w3.org/1999/02/22-rdf-syntax-ns#"
   xmlns:svg="http://www.w3.org/2000/svg"
   xmlns="http://www.w3.org/2000/svg"
   xmlns:sodipodi="http://sodipodi.sourceforge.net/DTD/sodipodi-0.dtd"
   xmlns:inkscape="http://www.inkscape.org/namespaces/inkscape"
   inkscape:export-ydpi="768"
   inkscape:export-xdpi="768"
   inkscape:export-filename="E:\S  Y  N  T  X  Y\Dokument Desain\CARLOS\Files\Beginner - Security And Crime - 48x\Beginner - Security And Crime - Expanded - 48px\Export\3. Detective.png"
   sodipodi:docname="3. Detective.svg"
   inkscape:version="1.0 (4035a4fb49, 2020-05-01)"
   id="svg979"
   version="1.1"
   viewBox="0 0 16.933334 16.933333"
   height="48pt"
   width="48pt">
  <defs
     id="defs973" />
  <sodipodi:namedview
     inkscape:snap-nodes="false"
     inkscape:bbox-nodes="true"
     inkscape:snap-bbox="true"
     inkscape:document-rotation="0"
     inkscape:window-maximized="1"
     inkscape:window-y="-8"
     inkscape:window-x="-8"
     inkscape:window-height="715"
     inkscape:window-width="1366"
     units="pt"
     showgrid="false"
     inkscape:current-layer="layer1"
     inkscape:document-units="pt"
     inkscape:cy="30.473392"
     inkscape:cx="4.1632981"
     inkscape:zoom="6.0435533"
     inkscape:pageshadow="2"
     inkscape:pageopacity="0.0"
     borderopacity="1.0"
     bordercolor="#333666"
     pagecolor="#ffffff"
     id="base">
    <inkscape:grid
       id="grid1526"
       type="xygrid" />
    <sodipodi:guide
       inkscape:locked="false"
       id="guide1528"
       orientation="56.666615,0"
       position="0.97013909,15.963209" />
    <sodipodi:guide
       inkscape:locked="false"
       id="guide1530"
       orientation="0,56.666667"
       position="0.97013909,0.97016731" />
    <sodipodi:guide
       inkscape:locked="false"
       id="guide1532"
       orientation="-56.666615,0"
       position="15.963195,0.97016731" />
    <sodipodi:guide
       inkscape:locked="false"
       id="guide1534"
       orientation="0,-56.666667"
       position="15.963195,15.963209" />
  </sodipodi:namedview>
  <metadata
     id="metadata976">
    <rdf:RDF>
      <cc:Work
         rdf:about="">
        <dc:format>image/svg+xml</dc:format>
        <dc:type
           rdf:resource="http://purl.org/dc/dcmitype/StillImage" />
        <dc:title />
      </cc:Work>
    </rdf:RDF>
  </metadata>
  <g
     transform="translate(0,-280.06668)"
     id="layer1"
     inkscape:groupmode="layer"
     inkscape:label="Layer 1">
    <path
       id="path738"
       style="color:#000000;font-style:normal;font-variant:normal;font-weight:normal;font-stretch:normal;font-size:medium;line-height:normal;font-family:sans-serif;font-variant-ligatures:normal;font-variant-position:normal;font-variant-caps:normal;font-variant-numeric:normal;font-variant-alternates:normal;font-variant-east-asian:normal;font-feature-settings:normal;font-variation-settings:normal;text-indent:0;text-align:start;text-decoration:none;text-decoration-line:none;text-decoration-style:solid;text-decoration-color:#000000;letter-spacing:normal;word-spacing:normal;text-transform:none;writing-mode:lr-tb;direction:ltr;text-orientation:mixed;dominant-baseline:auto;baseline-shift:baseline;text-anchor:start;white-space:normal;shape-padding:0;shape-margin:0;inline-size:0;clip-rule:nonzero;display:inline;overflow:visible;visibility:visible;opacity:1;isolation:auto;mix-blend-mode:normal;color-interpolation:sRGB;color-interpolation-filters:linearRGB;solid-color:#000000;solid-opacity:1;vector-effect:none;fill:#000000;fill-opacity:1;fill-rule:nonzero;stroke:none;stroke-width:0.637975;stroke-linecap:round;stroke-linejoin:round;stroke-miterlimit:4;stroke-dasharray:none;stroke-dashoffset:0;stroke-opacity:1;color-rendering:auto;image-rendering:auto;shape-rendering:auto;text-rendering:auto;enable-background:accumulate;stop-color:#000000;stop-opacity:1"
       d="m 6.8823021,281.03722 c -0.1507653,-0.005 -0.2843577,0.0965 -0.3202333,0.24298 l -0.9015125,3.67146 c -0.5663776,0.0238 -1.0686102,0.12021 -1.4578701,0.27227 -0.2236571,0.0873 -0.4128081,0.18827 -0.5632117,0.32022 -0.1504036,0.13196 -0.2778666,0.31256 -0.2778678,0.53954 1.2e-6,0.17423 0.080511,0.33083 0.1837908,0.44734 0.1032855,0.11658 0.2317227,0.20823 0.3812896,0.2897 0.201124,0.10947 0.4470971,0.20189 0.728313,0.2841 0.050226,0.8176 0.3446845,1.74291 0.8005827,2.58304 l -1.3613024,0.6953 c -0.5318716,0.27115 -0.5749689,1.02376 -0.1320806,1.37563 -0.7186137,0.0906 -1.3196201,0.35236 -1.7781043,0.79061 -0.7224366,0.69057 -1.0547756,1.76512 -1.0547757,3.11823 6.833e-4,0.1752 0.1425414,0.31706 0.3177412,0.31774 0.176172,7e-4 0.319546,-0.14157 0.3202331,-0.31774 0,-1.24883 0.3037661,-2.12747 0.8572778,-2.65657 0.4192846,-0.40079 1.0048767,-0.62994 1.7924338,-0.65043 -0.4100532,0.3989 -0.3453813,1.11278 0.1619848,1.41114 h 0.00253 c 6.39e-4,3.9e-4 -6.378e-4,0.002 0,0.002 l 3.6178877,2.14755 c 0.2305267,0.12408 0.3310296,0.10272 0.5382903,0 l 2.2491095,-1.34697 0.01371,0.0236 c 0.224236,0.3961 0.739931,0.53958 1.132654,0.3084 l 1.417373,-0.8336 c 0.354069,-0.20843 0.494122,-0.64502 0.3545,-1.01927 0.764272,0.56645 1.263488,1.48065 1.263488,2.65781 3.51e-4,0.17545 0.142298,0.31767 0.31774,0.31836 0.175442,-6.6e-4 0.3174,-0.14291 0.317741,-0.31836 0,-1.81558 -1.074282,-3.1858 -2.532583,-3.70324 l -0.02679,-0.0474 c -0.04068,-0.0719 -0.09339,-0.1324 -0.150771,-0.18691 0.433754,-0.34631 0.383814,-1.06718 -0.127097,-1.32765 l -1.10835,-0.56431 c 0.07486,-0.22635 0.117126,-0.46751 0.117126,-0.71834 0,-0.73469 -0.348628,-1.39092 -0.885937,-1.80738 0.298154,-0.0456 0.581192,-0.0968 0.834227,-0.15701 0.450711,-0.10718 0.821082,-0.23507 1.106486,-0.39561 0.285403,-0.16053 0.538911,-0.38189 0.538914,-0.72022 -10e-7,-0.22669 -0.127199,-0.40704 -0.277868,-0.53954 -0.150666,-0.13248 -0.338818,-0.23504 -0.562588,-0.3221 -0.389315,-0.15145 -0.891973,-0.24694 -1.457871,-0.27039 l -0.899067,-3.67146 c -0.04129,-0.16634 -0.206629,-0.27032 -0.3744372,-0.23551 l -1.5307644,0.31089 -1.5326331,-0.31089 c -0.017011,-0.004 -0.0343,-0.006 -0.051709,-0.007 z m 0.2255342,0.6928 1.2952621,0.26353 c 0.041931,0.008 0.085165,0.008 0.1270965,0 l 1.2927701,-0.26353 0.531438,2.16438 c -0.7706078,0.35733 -1.4212559,0.52989 -2.0123609,0.51959 -0.5893471,-0.0109 -1.1438783,-0.19797 -1.7525599,-0.56818 z m -0.6778481,2.76809 c 0.6250094,0.35008 1.2480898,0.54247 1.902708,0.55386 0.683582,0.0121 1.3936105,-0.17672 2.1768388,-0.52707 l 0.141425,0.5763 c -1.9334044,1.10079 -3.794082,0.30058 -4.3680045,-0.002 z m -1.9942917,1.31955 c 0.3439997,-0.13434 0.8632954,-0.2295 1.4528861,-0.23301 0.2152093,0.13029 2.6026768,1.50001 5.1492744,-0.002 v 0 c 0.59252,0.002 1.115405,0.0989 1.460364,0.23301 0.174963,0.0681 0.303307,0.1471 0.371943,0.20746 0.03992,0.0351 0.05305,0.0558 0.05794,0.0641 -0.0017,-0.0134 -0.01981,0.0551 -0.208712,0.16136 -0.198845,0.11188 -0.529332,0.23143 -0.944501,0.3302 -0.830338,0.19755 -2.0074662,0.3246 -3.3082451,0.3246 -1.2618737,0 -2.4096269,-0.11815 -3.2353528,-0.3059 -0.4383455,-0.0996 -0.7876753,-0.22111 -1.0005722,-0.33706 -0.2687521,-0.17827 -0.094677,-0.34429 0.2049736,-0.44235 z m 1.6858964,3.75184 c -0.4313554,-0.74508 -0.7269928,-1.59902 -0.8124207,-2.30954 v 0 c 0.7963184,0.16177 1.7882114,0.2601 2.880852,0.27476 -0.4197114,0.41415 -0.6815855,0.9926 -0.6815855,1.6292 0,1.00427 0.6504926,1.86188 1.5475864,2.15815 -0.1993566,0.0773 -0.3990399,0.12336 -0.5893785,0.12336 -0.7514379,0 -1.5650859,-0.65712 -2.1780837,-1.59868 z m 3.6216251,-2.03977 c 0.881256,0 1.59369,0.72552 1.59369,1.63419 0,0.25295 -0.0558,0.48888 -0.155132,0.70152 -0.157487,0.33709 -0.425542,0.60969 -0.753234,0.77005 -0.208041,0.10188 -0.4383177,0.16012 -0.685324,0.16012 -0.8812556,0 -1.5968047,-0.72301 -1.5968047,-1.63169 0,-0.90867 0.7155491,-1.63419 1.5968047,-1.63419 z m -3.9599259,2.70641 c 0.328059,0.49613 0.7151645,0.94668 1.1519669,1.27844 0.052903,0.1555 0.3808664,1.12205 0.707129,2.15628 0.1677753,0.53182 0.3214871,1.04286 0.4242784,1.4317 L 4.9042079,293.2229 c -8.295e-4,0 -0.00169,0 -0.00253,0 -0.1607213,-0.0937 -0.1729258,-0.31202 -0.023678,-0.42614 l 0.5533376,-0.42515 c 0.238092,-0.20243 0.1928945,-0.43994 -0.0094,-0.56608 l -1.0379646,-0.52708 c -0.1428142,-0.0728 -0.1428142,-0.25489 0,-0.3277 z m 5.7941019,0.21805 1.099633,0.56011 c 0.116777,0.0596 0.124115,0.20549 0.01182,0.27537 l -0.576919,0.35886 -0.634858,-1.05976 c 0.03469,-0.0436 0.06883,-0.0884 0.100307,-0.13458 z m -0.575048,0.58129 0.561341,0.93952 -0.285344,0.16883 -0.561965,-0.93827 c 0.09998,-0.0494 0.195177,-0.1067 0.285968,-0.17008 z m -0.889053,0.40682 0.614922,1.0255 -0.151394,0.0891 c -0.210702,0.12401 -0.257246,0.29662 -0.285344,0.47786 -0.0281,0.18125 -0.0081,0.39323 0.104045,0.59125 l 0.02803,0.0492 c 0.07591,0.13407 0.186751,0.23603 0.313381,0.30714 l -1.8653268,1.11771 c 0.1027309,-0.38867 0.2541737,-0.90084 0.4217851,-1.43171 0.3234186,-1.02435 0.6469939,-1.97182 0.7052603,-2.14194 0.038869,-0.0275 0.076894,-0.0556 0.1146424,-0.0842 z m -0.9345333,0.51836 c -0.1408973,0.4239 -0.3197969,0.96908 -0.4928095,1.51706 -0.076111,0.24106 -0.1483877,0.47642 -0.2174348,0.70463 -0.068479,-0.22843 -0.140233,-0.46386 -0.2161883,-0.70463 -0.1727015,-0.54745 -0.3520171,-1.09154 -0.4934328,-1.51519 0.2274705,0.0769 0.4632694,0.12086 0.7077523,0.12086 0.2459032,0 0.4840459,-0.0458 0.7121131,-0.12273 z m 1.8602713,1.06538 c 0.467991,-0.27307 0.932801,-0.54904 1.398133,-0.8224 0.02318,-0.0136 0.04659,-0.0225 0.07041,-0.0262 v 0 c 0.07143,-0.0109 0.141765,0.0223 0.18379,0.0966 l 0.02803,0.0498 c 0.05604,0.099 0.02234,0.22077 -0.0704,0.27538 l -1.415505,0.8336 c -0.09276,0.0546 -0.198158,0.026 -0.254193,-0.0729 l -0.02803,-0.0498 c -0.031,-0.089 -0.04898,-0.19835 0.08777,-0.28408 z m 0.526646,0.95199 1.448402,-0.85169 c 0.02318,-0.0136 0.04659,-0.0221 0.0704,-0.0256 h 4e-6 c 0.07143,-0.0109 0.141765,0.0248 0.183791,0.0991 l 0.02803,0.0492 c 0.05604,0.099 0.02234,0.21829 -0.0704,0.27288 l -1.415506,0.8336 c -0.09276,0.0546 -0.198157,0.0286 -0.254192,-0.0704 l -0.02803,-0.0492 c -0.01723,-0.0304 -0.0249,-0.0696 -0.02803,-0.10839 -0.0013,-0.0534 0.01373,-0.11646 0.06554,-0.14951 z"
       sodipodi:nodetypes="ccccssccccccscccscccccccccccccccccccscscscccccccccccccscccccccccccccccscscccccsccssccccssscccccccccccccccccccccccccccccccscccscccscscccccccccscccccsccccccccc" />
  </g>
</svg>
