<?xml version="1.0" encoding="iso-8859-1"?>
<!-- Generator: Adobe Illustrator 16.0.0, SVG Export Plug-In . SVG Version: 6.00 Build 0)  -->
<!DOCTYPE svg PUBLIC "-//W3C//DTD SVG 1.1//EN" "http://www.w3.org/Graphics/SVG/1.1/DTD/svg11.dtd">
<svg version="1.1" id="Capa_1" xmlns="http://www.w3.org/2000/svg" xmlns:xlink="http://www.w3.org/1999/xlink" x="0px" y="0px"
	 width="612px" height="612px" viewBox="0 0 612 612" style="enable-background:new 0 0 612 612;" xml:space="preserve">
<g>
	<g>
		<path d="M432.652,212.401h-17.796c-23.693,0-45.272,21.793-45.272,45.729v230.931c0,23.672,21.579,45.232,45.276,45.232h17.796
			c25.199,0,40.257-22.998,40.257-45.232V258.13C472.909,235.653,457.852,212.401,432.652,212.401z M457.013,489.062
			c0,14.422-9.112,29.336-24.36,29.336h-17.796c-15.102,0-29.38-14.26-29.38-29.336V258.13c0-15.058,14.553-29.837,29.38-29.837
			h17.796c15.248,0,24.36,15.169,24.36,29.837V489.062z"/>
		<path d="M199.437,212.401h-17.796c-23.065,0-42.55,20.943-42.55,45.729v230.931c0,24.52,19.485,45.232,42.55,45.232h17.796
			c23.296,0,42.979-20.713,42.979-45.232V258.13C242.416,233.344,222.732,212.401,199.437,212.401z M226.52,489.062
			c0,15.629-12.657,29.336-27.083,29.336h-17.796c-15.944,0-26.654-15.17-26.654-29.336V258.13
			c0-14.112,10.949-29.837,26.654-29.837h17.796c14.43,0,27.083,13.941,27.083,29.837V489.062z"/>
		<path d="M316.042,212.401H298.25c-23.395,0-43.913,21.368-43.913,45.733v230.931c0,24.094,20.518,45.232,43.913,45.232h17.795
			c22.946,0,41.62-20.291,41.62-45.232V258.134C357.662,232.915,338.992,212.401,316.042,212.401z M341.767,489.062
			c0,14.107-9.836,29.336-25.725,29.336H298.25c-14.66,0-28.017-13.984-28.017-29.336V258.13c0-15.614,13.353-29.837,28.017-29.837
			h17.795c15.388,0,25.725,15.427,25.725,29.837v230.931H341.767z"/>
		<path d="M584.834,510.454h-36.418V228.297h36.418c7.2,0,13.138-4.697,15.125-11.962c2.038-7.459-0.294-17.609-8.695-22.561
			L309.096,27.144c-2.492-1.47-5.583-1.474-8.075,0l-282.168,166.4c-8.417,4.959-10.742,15.193-8.687,22.735
			c1.991,7.3,7.912,12.014,15.093,12.014h38.326v282.155H25.259C11.803,510.448,0,522.8,0,536.884v23.328
			c0,13.715,11.807,25.748,25.259,25.748h559.575c14.219,0,27.166-12.271,27.166-25.748v-23.328
			C612,523.298,598.798,510.454,584.834,510.454z M596.104,560.212c0,4.602-6.004,9.852-11.27,9.852H25.259
			c-4.812,0-9.363-4.789-9.363-9.852v-23.328c0-5.217,4.725-10.539,9.363-10.539h46.273c4.388,0,7.948-3.561,7.948-7.947V220.345
			c0-4.387-3.561-7.948-7.948-7.948H25.601c-0.183-0.465-0.374-1.391-0.151-2.583c0.223-1.196,0.771-2.158,1.474-2.575
			l278.13-164.024l278.13,164.247c0.707,0.417,1.26,1.355,1.478,2.516c0.215,1.113,0.044,1.979-0.119,2.42h-44.075
			c-4.388,0-7.948,3.561-7.948,7.948v298.052c0,4.387,3.561,7.947,7.948,7.947h44.366c5.055,0,11.27,5.811,11.27,10.539V560.212z"/>
	</g>
</g>
<g>
</g>
<g>
</g>
<g>
</g>
<g>
</g>
<g>
</g>
<g>
</g>
<g>
</g>
<g>
</g>
<g>
</g>
<g>
</g>
<g>
</g>
<g>
</g>
<g>
</g>
<g>
</g>
<g>
</g>
</svg>
