<?xml version="1.0" encoding="utf-8"?>
<!-- Generator: Adobe Illustrator 16.0.3, SVG Export Plug-In . SVG Version: 6.00 Build 0)  -->
<!DOCTYPE svg PUBLIC "-//W3C//DTD SVG 1.1//EN" "http://www.w3.org/Graphics/SVG/1.1/DTD/svg11.dtd">
<svg version="1.1" id="Capa_1" xmlns="http://www.w3.org/2000/svg" xmlns:xlink="http://www.w3.org/1999/xlink" x="0px" y="0px"
	 width="192px" height="192px" viewBox="0 0 192 192" enable-background="new 0 0 192 192" xml:space="preserve">
<path id="Layer_8" fill="none" stroke="#000000" stroke-miterlimit="10" d="M170.3,96c0,41.04-33.271,74.311-74.3,74.311
	c-20.34,0-38.76-8.17-52.18-21.41c1.09-4.25-1.2-10.391-1.2-10.391c2.58,0.391,2.58-0.13,2.7-3.22c0.13-3.09-1.93-4.25,1.29-5.8
	c3.22-1.551,0-7.471,0-7.471s-12.24-8.76-11.85-12.24c0.39-3.479-3.86-11.85-3.86-11.85s-2.06-9.53-4.25-10.689
	c-1-0.53-3,2.23-4.88,5.38c0.54-12.11,3.98-23.46,9.64-33.38c5.41-3.98,11.15-7.39,14.99-7.42c9.27-0.08,15.36-9.33,17.48-10.67
	c2.12-1.33,4.3-5.57,8.64-8.22c2.31-1.41,6.18-5.54,9.29-9.89c4.6-0.89,9.34-1.35,14.2-1.35c6.82,0,13.43,0.92,19.711,2.64
	c-0.111,8.59,4.34,14.5,4.34,14.5s-3.98,1.27-5.311,2.84c-1.33,1.57-3.62,1.92-5.91,0.48c-2.29-1.45-8.74,0.78-9.41,1.57
	c-0.66,0.78-2.109,5.31-3.43,5.97c-1.32,0.66-0.43,4.4-0.43,4.76c0,0.36,5.25,0.84,6.571,0.24c1.33-0.6,1.209-5.85,1.869-7.9
	s5.85,4.22,5.01,4.94c-0.85,0.72-5.85,6.57-7.06,6.87c-1.21,0.3-6.69-0.06-7.05,0.84c-0.36,0.91-8.92,5.73-8.92,5.73
	s1.15,4.22,0.72,5c-0.42,0.78-5.49-0.85-5.49-0.85l-1.99,4.64c0,0,1.99,4.04,2.41,4.16s5.19-0.3,5.19-0.3l4.4-6.81l4.28-0.48
	l8.39,4.57l-6.42-5.38l3.31-1.86c0,0,4.76,3.11,6.42,4.76c1.66,1.66,6.011-0.96,6.011-0.96s0.829-5.46,2.069-7.32
	c1.239-1.86,8.08,1.66,9.729,3.31c1.66,1.66-2.069,4.01-2.069,4.01s-4.97,1.17-6.21,3.65s5.18,1.03,6.63,1.91
	c1.45,0.88-2.28,5.57-2.28,5.57h-10.561l-2.489,4.73l-10.351-4.73V78.2c0,0-16.569,0.76-19.459,5.87c-2.9,5.11-9.32,5.44-9.94,11.9
	c0,0-0.41,6.25-1.86,8.11c-1.45,1.859,4.76,12.01,10.98,13.46c6.21,1.45,9.11-3.94,14.7-0.83c5.59,3.11,6.419,6.011,6.01,9.53
	c-0.41,3.52,6.01,5.1,5.38,9.07c-0.62,3.969-4.35,5.51-2.49,8.68c1.86,3.17,7.04,12.48,7.04,12.48s11.8-0.211,17.19-9.73
	c5.39-9.52,9.32-10.35,8.49-13.87s-0.211-11.181,3.31-15.53s6.63-7.869,6.42-10.77s-6.42,1.24-6.42,1.24l-14.7-20.09l3.311-2.07
	l13.67,15.741c0,0,10.35-12.42,8.699-14.5c-1.66-2.07-4.549-1.04-4.549-1.04l-7.25-4.35c0,0,13.459-0.56,17.399,1.27
	c3.93,1.83,8.28,13.35,9.521,13.19c1.239-0.17-3.49-18.54,0-20.88c1.1-0.74,2.5-1.01,3.899-1.04C169.15,81.01,170.3,88.37,170.3,96
	L170.3,96z"/>
<path id="Layer_9" fill="none" stroke="#000000" stroke-miterlimit="10" d="M163.12,75.12c1.101-0.74,2.5-1.01,3.899-1.04
	c-7.439-24.14-26.85-43.04-51.31-49.75c-0.11,8.59,4.34,14.5,4.34,14.5s-3.979,1.27-5.31,2.84c-1.33,1.57-3.62,1.92-5.91,0.48
	c-2.29-1.45-8.74,0.78-9.41,1.57c-0.66,0.78-2.109,5.31-3.43,5.97s-0.43,4.4-0.43,4.76c0,0.36,5.25,0.84,6.57,0.24
	c1.33-0.6,1.21-5.85,1.87-7.9s5.85,4.22,5.01,4.94c-0.85,0.72-5.85,6.57-7.06,6.87c-1.21,0.3-6.69-0.06-7.05,0.84
	c-0.36,0.91-8.92,5.73-8.92,5.73s1.15,4.22,0.72,5c-0.42,0.78-5.49-0.85-5.49-0.85l-1.99,4.64c0,0,1.99,4.04,2.41,4.16
	s5.19-0.3,5.19-0.3l4.4-6.81l4.28-0.48l8.391,4.57l-6.42-5.38l3.309-1.86c0,0,4.761,3.11,6.421,4.76c1.659,1.66,6.01-0.96,6.01-0.96
	s0.83-5.46,2.069-7.32c1.24-1.86,8.08,1.66,9.73,3.31c1.66,1.66-2.07,4.01-2.07,4.01s-4.969,1.17-6.209,3.65s5.18,1.03,6.629,1.91
	c1.451,0.88-2.279,5.57-2.279,5.57H110.52l-2.49,4.73l-10.35-4.73V78.2c0,0-16.57,0.76-19.459,5.87c-2.9,5.11-9.32,5.44-9.94,11.9
	c0,0-0.41,6.25-1.86,8.11c-1.45,1.859,4.76,12.01,10.98,13.46c6.21,1.45,9.11-3.94,14.7-0.83c5.589,3.11,6.419,6.011,6.009,9.53
	c-0.409,3.52,6.011,5.1,5.381,9.07c-0.62,3.969-4.35,5.51-2.49,8.68s7.04,12.48,7.04,12.48s11.8-0.211,17.19-9.73
	c5.39-9.52,9.319-10.35,8.49-13.87c-0.83-3.521-0.211-11.181,3.309-15.53c3.521-4.35,6.631-7.869,6.421-10.77
	s-6.421,1.24-6.421,1.24L122.33,87.72l3.311-2.07l13.67,15.741c0,0,10.35-12.42,8.699-14.5c-1.66-2.07-4.55-1.04-4.55-1.04
	l-7.25-4.35c0,0,13.46-0.56,17.399,1.27c3.931,1.83,8.281,13.35,9.521,13.19C164.359,95.83,159.641,77.46,163.12,75.12z"/>
<path id="Layer_16" fill="none" stroke="#000000" stroke-miterlimit="10" d="M72.52,32.94c2.31-1.41,6.18-5.54,9.29-9.89
	c-21.59,4.18-39.85,17.7-50.4,36.2c5.41-3.98,11.15-7.39,14.99-7.42c9.27-0.08,15.36-9.33,17.48-10.67
	C66,39.82,68.18,35.59,72.52,32.94z"/>
<path id="Layer_17" fill="none" stroke="#000000" stroke-miterlimit="10" d="M34.76,109.779c0.39-3.479-3.86-11.85-3.86-11.85
	s-2.06-9.53-4.25-10.689c-1-0.53-3,2.23-4.88,5.38c-0.05,1.12-0.08,2.24-0.08,3.37c0,20.699,8.47,39.42,22.12,52.9
	c1.09-4.25-1.2-10.391-1.2-10.391c2.58,0.391,2.58-0.13,2.7-3.221c0.13-3.09-1.93-4.25,1.29-5.799c3.22-1.551,0-7.471,0-7.471
	S34.38,113.26,34.76,109.779z"/>
<circle fill="none" stroke="#000000" stroke-miterlimit="10" cx="96" cy="96" r="74.31"/>
<path fill="none" stroke="#000000" stroke-miterlimit="10" d="M167.02,74.09c-1.399,0.03-2.799,0.3-3.899,1.04
	c-3.479,2.33,1.239,20.71,0,20.88c-1.24,0.17-5.591-11.35-9.521-13.19c-3.93-1.84-17.39-1.27-17.39-1.27l7.25,4.35
	c0,0,2.899-1.03,4.56,1.04s-8.699,14.49-8.699,14.49l-13.67-15.74l-3.311,2.07l14.7,20.09c0,0,6.21-4.14,6.42-1.24
	c0.21,2.9-2.899,6.42-6.42,10.771s-4.14,12.011-3.31,15.53s-3.11,4.35-8.49,13.869c-5.381,9.531-17.19,9.73-17.19,9.73
	s-5.18-9.32-7.04-12.48c-1.859-3.17,1.86-4.699,2.48-8.68c0.619-3.97-5.801-5.55-5.381-9.07c0.41-3.52-0.409-6.42-6.009-9.529
	c-5.59-3.109-8.49,2.279-14.7,0.83c-6.21-1.45-12.42-11.6-10.98-13.46c1.45-1.86,1.86-8.11,1.86-8.11c0.62-6.46,7.04-6.8,9.94-11.9
	c2.9-5.1,19.469-5.87,19.469-5.87v4.59l10.351,4.73l2.479-4.73h10.561c0,0,3.73-4.69,2.279-5.57c-1.449-0.88-7.869,0.57-6.629-1.91
	s6.209-3.65,6.209-3.65s3.73-2.35,2.07-4.01s-8.49-5.18-9.73-3.31c-1.239,1.86-2.069,7.32-2.069,7.32s-4.351,2.62-6.01,0.96
	c-1.66-1.66-6.421-4.76-6.421-4.76l-3.309,1.86l6.42,5.38L95.5,70.57l-4.28,0.48l-4.4,6.81c0,0-4.76,0.42-5.19,0.3
	C81.21,78.04,79.22,74,79.22,74l1.99-4.64c0,0,5.07,1.63,5.49,0.85c0.42-0.78-0.72-5-0.72-5s8.56-4.82,8.92-5.73
	c0.36-0.9,5.85-0.54,7.05-0.84c1.21-0.3,6.21-6.15,7.06-6.87c0.84-0.72-4.34-6.99-5.01-4.94c-0.66,2.05-0.54,7.3-1.87,7.9
	s-6.57,0.12-6.57-0.24c0-0.36-0.89-4.1,0.43-4.76s2.77-5.19,3.43-5.97c0.66-0.78,7.12-3.01,9.41-1.57c2.29,1.45,4.58,1.09,5.91-0.48
	s5.31-2.84,5.31-2.84s-4.44-5.9-4.34-14.5"/>
<path fill="none" stroke="#000000" stroke-miterlimit="10" d="M78.73,52.59c0,0,1.18,3.77,0.35,5.06c-0.82,1.29-2.35,3.71-1.65,3.71
	h4l2.06-4.12l-2.35-5.41L78.73,52.59z"/>
<path fill="none" stroke="#000000" stroke-miterlimit="10" d="M72.59,55.4l-0.07,1.42l0.47-0.23"/>
<path fill="none" stroke="#000000" stroke-miterlimit="10" d="M143.13,130.65c0,0-3.44,5.399-5.021,5.89
	c-1.58,0.489-2.02,4.14-2.129,4.31c-0.11,0.17-1.42,4.141-0.82,4.25C135.77,145.21,141.55,142.48,143.13,130.65z"/>
<path fill="none" stroke="#000000" stroke-miterlimit="10" d="M21.77,92.63c1.88-3.15,3.88-5.92,4.88-5.39
	c2.19,1.16,4.25,10.699,4.25,10.699s4.25,8.371,3.86,11.851c-0.39,3.479,11.85,12.239,11.85,12.239s3.22,5.921,0,7.471
	c-3.22,1.54-1.16,2.7-1.29,5.8c-0.13,3.091-0.13,3.61-2.71,3.22c0,0,2.29,6.141,1.2,10.391"/>
<path fill="none" stroke="#000000" stroke-miterlimit="10" d="M31.41,59.25c5.41-3.98,11.16-7.39,14.99-7.42
	c9.27-0.08,15.36-9.33,17.48-10.66c2.12-1.34,4.3-5.57,8.64-8.22c2.31-1.41,6.18-5.54,9.29-9.89"/>
</svg>
