<svg id="Layer_1" data-name="Layer 1" xmlns="http://www.w3.org/2000/svg" viewBox="0 0 96 96"><path d="M42.41,86.89c-.81,0-1.62,0-2.45-.07l-.44,0A36.64,36.64,0,0,1,13.08,75.52,39.21,39.21,0,0,1,2,46.79C2.58,26.71,18.19,10.17,37.55,9.15c11-.59,24.24,3.75,27.15,12.93,1.79,5.65-1.58,11.83-4.55,17.3C57.46,44.32,54.91,49,56.9,51.94h0a5.72,5.72,0,0,0,3.21,2.33c1.94.44,3.79-.69,5.74-1.89,2.17-1.34,4.42-2.72,6.9-1.77a5.81,5.81,0,0,1,2.61,2.14c4.13,5.53.17,18.08-5.91,23.75A39.21,39.21,0,0,1,42.41,86.89Zm-2.84-75.8c-.65,0-1.28,0-1.92.05C19.32,12.12,4.55,27.8,4,46.85a37.28,37.28,0,0,0,10.5,27.28,34.65,34.65,0,0,0,25,10.67l.56,0a37.48,37.48,0,0,0,28-9.79c5.78-5.39,8.86-16.83,5.68-21.1A3.94,3.94,0,0,0,72,52.48c-1.57-.6-3.22.42-5.15,1.6-2.1,1.29-4.48,2.75-7.22,2.14a7.68,7.68,0,0,1-4.43-3.16h0c-2.67-4,.16-9.15,3.15-14.64s5.94-10.9,4.4-15.74C60.34,15,49.37,11.09,39.57,11.09Z"/><path d="M40.75,28.44a6.82,6.82,0,1,1,6.81-6.82A6.83,6.83,0,0,1,40.75,28.44Zm0-11.63a4.82,4.82,0,1,0,4.81,4.81A4.82,4.82,0,0,0,40.75,16.81Z"/><path d="M22.13,36.15A6.82,6.82,0,1,1,27,24.52h0a6.82,6.82,0,0,1-4.82,11.63Zm0-11.63a4.75,4.75,0,0,0-3.4,1.41,4.82,4.82,0,0,0,0,6.81,4.8,4.8,0,0,0,6.8,0,4.82,4.82,0,0,0,0-6.81h0A4.76,4.76,0,0,0,22.13,24.52Z"/><path d="M14.42,54.76A6.81,6.81,0,1,1,21.23,48,6.82,6.82,0,0,1,14.42,54.76Zm0-11.62A4.81,4.81,0,1,0,19.23,48,4.82,4.82,0,0,0,14.42,43.14Z"/><path d="M22.13,73.38a6.82,6.82,0,0,1-4.82-11.63h0a6.81,6.81,0,1,1,4.82,11.63Zm0-11.63a4.75,4.75,0,0,0-3.4,1.41h0a4.8,4.8,0,1,0,3.4-1.41ZM18,62.46h0Z"/><path d="M40.75,81.09a6.82,6.82,0,1,1,6.81-6.81A6.83,6.83,0,0,1,40.75,81.09Zm0-11.63a4.82,4.82,0,1,0,4.81,4.82A4.82,4.82,0,0,0,40.75,69.46Z"/><path d="M89.93,55.49h-8.7a1,1,0,0,1-1-1L81.71,16a3.87,3.87,0,0,1,7.73,0l1.49,38.42a1,1,0,0,1-1,1Zm-7.66-2h6.62L87.45,16.1a1.87,1.87,0,0,0-3.74,0Z"/><path d="M88.87,61.54H82.29a1,1,0,0,1-1-.83l-1.06-6.05a1,1,0,0,1,1-1.17h8.7a1,1,0,0,1,1,1.17l-1.07,6.05A1,1,0,0,1,88.87,61.54Zm-5.74-2H88l.71-4H82.42Z"/><path d="M83.57,86.9a1,1,0,0,1-.58-.18,1,1,0,0,1-.37-1.14c.08-.24,2-6.06-2.5-12.72-4-4.41,1.07-12.51,1.29-12.86a1,1,0,0,1,.84-.46h6.83a1.06,1.06,0,0,1,.7.27A15.2,15.2,0,0,1,94,70.72c-.22,5.47-3.51,10.84-9.79,16A1,1,0,0,1,83.57,86.9Zm-.75-25.36c-1.33,2.31-3.53,7.49-1.18,10l.1.12A18.3,18.3,0,0,1,85,83.3c4.44-4.16,6.77-8.39,6.95-12.63a13.34,13.34,0,0,0-3.34-9.13Z"/></svg>