<?xml version="1.0" ?><svg style="enable-background:new 0 0 960 960;" version="1.1" viewBox="0 0 960 960" xml:space="preserve" xmlns="http://www.w3.org/2000/svg" xmlns:xlink="http://www.w3.org/1999/xlink"><style type="text/css">
	.st0{display:none;}
	.st1{display:inline;opacity:0.93;}
	.st2{display:inline;fill:none;stroke:#000000;stroke-width:15;stroke-linecap:round;stroke-linejoin:round;stroke-miterlimit:10;}
	.st3{display:inline;}
	.st4{fill:none;stroke:#000000;stroke-width:15;stroke-linecap:round;stroke-linejoin:round;stroke-miterlimit:10;}
	.st5{display:inline;fill:none;stroke:#1A1D3F;stroke-width:15;stroke-linecap:round;stroke-linejoin:round;stroke-miterlimit:10;}
	.st6{fill:#DDEDE7;}
	.st7{fill:#1A1D3F;}
	.st8{fill:#E9B44D;}
	.st9{fill:#ED644E;}
	.st10{fill:#494EDF;}
	.st11{fill:#3DC5A1;}
	.st12{fill:#F6CEC1;}
	.st13{fill:none;}
	.st14{fill:none;stroke:#1A1D3F;stroke-width:15;stroke-linecap:round;stroke-linejoin:round;stroke-miterlimit:10;}
	.st15{display:inline;fill:#E9B44D;}
	.st16{fill:#222222;}
	.st17{display:inline;fill:#222222;}
</style><g class="st0" id="guide"/><g class="st0" id="sketch"/><g class="st0" id="stroke"><g class="st3"><path class="st4" d="M506.1,101.7c-98.3-0.5-187.8,30.7-230.2,108s-34.2,181.6,27.2,244.9c38,39.1,90.8,62.1,144.9,68.9    c58.3,7.4,119.8-3.8,169-36c67-43.9,106.4-127.4,95.9-206.9s-71-150.5-148.3-171.9C514.9,95,460,101.3,414.8,125.9    c-62.4,33.9-104.2,105.2-100.8,176.2c4.3,89.7,54.7,137,123.3,155.7c68.5,18.7,148.8-15.3,179.9-79.1s6.2-150.4-55.8-185.1    S410,185.5,380,249.9c-16.9,36.4-14.6,81.6,8.2,114.7c22.8,33,65.9,49.4,105,40.6c39.1-8.8,70.9-43.4,71.5-83.5    c0.6-40.1-31.9-71.3-71.8-75.3c-17.4-1.8-36.1,3-48.5,15.4c-12.4,12.4-16.9,33-8.3,48.3s31.2,21.6,45.1,11"/><path class="st4" d="M464.6,525.1c-1.4,130.3-5.9,200.8-6.9,330.9c9.1,1.5,22.3,0.9,31.4,2.4c-3.3-142.1,5.3-213.4,7.3-333.1"/></g></g><g id="outline"><path d="M487.9,865.8c0.4,0.1,0.8,0.1,1.2,0.1c1.8,0,3.6-0.6,4.9-1.8c1.7-1.5,2.6-3.6,2.6-5.8c-2.1-89.4,0.6-149.9,3.3-213.9   c1.5-34.7,3.1-70.6,3.8-111.9c11.3-0.9,22.5-2.4,33.5-4.7c30.8-6.3,58.9-17.7,83.7-34c34.2-22.4,61.7-54.6,79.7-93.2   c18.1-38.8,24.8-80.6,19.5-120.9c-10.9-82.9-74.1-156.1-153.7-178.1c-20.2-5.6-41.1-8-62-7.3c-0.3,0-0.6,0-0.9,0   c-111.6,0-194.8,39.7-234.4,111.9c-21.6,39.3-30.9,86.2-26.2,132.1c4.8,47.1,24.2,90.3,54.6,121.6C335,498.2,388,523.5,447,531   c3.4,0.4,6.7,0.8,10.1,1.1c-0.7,58.6-2,105.6-3.3,151.1c-1.5,53.8-3,104.5-3.5,172.8c0,3.7,2.6,6.9,6.3,7.5c5,0.8,10.9,1,16.6,1.3   C478.4,864.9,483.8,865.1,487.9,865.8z M464.7,517.6c-5.3-0.4-10.5-0.9-15.8-1.5c-55.6-7-105.5-30.7-140.4-66.7   c-28.1-28.9-46-69-50.5-112.7c-4.3-42.9,4.3-86.7,24.4-123.4C307,168.4,350.3,137,408,121.1c-30.6,17.4-56.4,43.4-74.8,75.3   c-19.2,33.3-28.4,70-26.7,106.1c4.1,84.5,48.6,140.7,128.8,162.6c35,9.6,73.7,6.4,108.9-9c35.6-15.5,63.9-41.8,79.7-74.1   c15.7-32.3,18.4-72,7.5-108.9c-11.2-37.8-34.8-68.4-66.3-86c-32.2-18-72.6-21.2-110.7-8.9c-36.7,11.9-66.3,36.9-81.1,68.6   c-18.5,39.6-15,87.6,8.8,122.1c24.2,35.1,70.6,53.1,112.8,43.7c20.8-4.6,40-16.1,54.2-32.4c14.6-16.7,22.8-37.4,23.1-58.3   c0.6-42.7-33.1-78.3-78.5-82.9c-21-2.1-41.4,4.4-54.6,17.6c-15.5,15.5-19.5,39.6-9.6,57.2c5.5,9.7,15.6,16.9,27.2,19.2   c10.6,2.2,21.2,0,29-6c3.3-2.5,3.9-7.2,1.4-10.5c-2.5-3.3-7.2-3.9-10.5-1.4c-4.4,3.4-10.4,4.5-16.9,3.2c-7.4-1.5-13.8-6-17.1-11.9   c-6.6-11.7-3.6-28.6,7.1-39.3c10-10,25.8-14.9,42.4-13.2c37.6,3.8,65.6,32.9,65.1,67.8c-0.5,35.3-28.7,68.1-65.6,76.3   c-36.4,8.1-76.4-7.3-97.2-37.5c-20.8-30.2-23.8-72.3-7.5-107.2c13-28,39.3-50.1,72.1-60.7c34.2-11.1,70.2-8.2,98.8,7.7   c57.8,32.3,82.4,114.2,52.7,175.3c-14.2,29.1-39.8,52.9-72.1,66.9c-32.1,14-67.3,16.9-99,8.2c-34.8-9.5-62.4-25.9-82-48.9   c-21.8-25.4-33.8-59.1-35.8-100c-1.6-33.2,6.9-67,24.7-97.9c17.4-30.2,43-55.5,72.2-71.4c26.5-14.4,56.2-22.3,86.3-23.3   c0.5,0,1,0,1.4,0c0.4,0,0.7,0,1.1-0.1c18.7-0.4,37.4,1.9,55.4,6.9c73.9,20.5,132.7,88.6,142.8,165.6c4.9,37.5-1.4,76.4-18.3,112.6   c-16.8,36.1-42.5,66.2-74.3,87c-23.2,15.2-49.6,25.9-78.5,31.8c-12.6,2.6-25.3,4.2-38.2,4.9c-0.1,0-0.3,0-0.4,0   c-10,0.5-20.1,0.4-30.2-0.2C465.2,517.6,465,517.6,464.7,517.6C464.7,517.6,464.7,517.6,464.7,517.6z M468.7,683.6   c1.3-45.3,2.6-92.2,3.3-150.6c3.5,0.1,7.1,0.2,10.6,0.2c2.1,0,4.1,0,6.2-0.1c-0.8,40.7-2.3,76.1-3.8,110.5   c-2.7,62.2-5.3,121.1-3.5,206.4c-2.5-0.2-5.2-0.3-7.7-0.4c-2.8-0.1-5.7-0.2-8.5-0.4C465.8,784.6,467.2,735.5,468.7,683.6z"/></g><g class="st0" id="flat"><g class="st3"><g><g><g><g><g><g><g><g><path class="st6" d="M494.5,528.1l-31.8-0.2c-1.4,130.3-5.9,201.8-6.9,331.9c9.1,1.5,22.3,0.9,31.4,2.4            C483.9,720,492.5,647.8,494.5,528.1z"/></g></g></g></g></g></g></g></g><g><g><g><g><g><g><g><g><path class="st9" d="M710.9,284.3c-10.5-79.5-77.3-178.9-206.8-178.9c-98.3-0.5-187.8,30.7-230.2,108            S239.7,395,301.1,458.3c38,39.1,90.8,62.1,144.9,68.9c58.3,7.4,119.8-3.8,169-36C682,447.3,721.4,363.8,710.9,284.3z"/></g></g></g></g></g></g></g></g><g><g><g><g><g><g><g><g><path class="st6" d="M474.2,474.2c-13.9,0-27.7-1.8-40.9-5.4c-80.2-21.9-124.7-78.1-128.8-162.6            c-2.1-43.3,13.1-91,40.5-127.7c25-33.4,72.8-74.4,158.6-80.6c4.1-0.3,7.7,2.8,8,6.9c0.3,4.1-2.8,7.7-6.9,8            c-63.5,4.6-114.5,30.4-147.6,74.6c-25.4,33.9-39.4,78-37.5,117.9c2,40.9,14,74.5,35.8,100c19.6,22.9,47.2,39.4,82,48.9            c31.7,8.7,66.9,5.7,99-8.2c32.4-14.1,58-37.8,72.1-66.9c29.7-61.1,5.1-143-52.7-175.3c-28.6-16-64.6-18.8-98.8-7.7            c-32.8,10.6-59,32.7-72.1,60.7c-16.3,34.9-13.3,77,7.5,107.2c20.8,30.2,60.8,45.7,97.2,37.5c36.9-8.3,65.1-41.1,65.6-76.3            c0.5-34.8-27.5-63.9-65.1-67.8c-16.6-1.7-32.5,3.3-42.4,13.2c-10.7,10.7-13.7,27.6-7.1,39.3c3.4,5.9,9.8,10.4,17.1,11.9            c6.4,1.3,12.4,0.2,16.9-3.2c3.3-2.5,8-1.9,10.5,1.4c2.5,3.3,1.9,8-1.4,10.5c-7.8,6-18.4,8.2-29,6            c-11.6-2.4-21.7-9.6-27.2-19.2c-10-17.7-5.9-41.7,9.6-57.2c13.1-13.1,33.5-19.7,54.6-17.6c45.4,4.6,79.2,40.3,78.5,82.9            c-0.3,20.9-8.5,41.6-23.1,58.3c-14.2,16.2-33.4,27.7-54.2,32.4c-42.2,9.4-88.6-8.5-112.8-43.7            c-23.8-34.5-27.2-82.5-8.8-122.1c14.8-31.7,44.3-56.8,81.1-68.6c38.2-12.3,78.5-9.1,110.7,8.9            c31.5,17.6,55.1,48.2,66.3,86c11,36.9,8.2,76.6-7.5,108.9c-15.7,32.3-44,58.6-79.7,74.1            C520.3,469.3,497.1,474.2,474.2,474.2z"/></g></g></g></g></g></g></g></g></g></g><g class="st0" id="colored_x5F_line"><g class="st3"><path class="st8" d="M710.9,284.3c-9.5-72-65.2-160.3-171.7-176.3c-70.2-8.8-149,35.3-182.1,79.5c-25.4,33.9-39.4,78-37.5,117.9    c2,40.9,14,74.5,35.8,100c19.6,22.9,47.2,39.4,82,48.9c31.7,8.7,66.9,5.7,99-8.2c32.4-14.1,58-37.8,72.1-66.9    c29.7-61.1,5.1-143-52.7-175.3c-28.6-16-64.6-18.8-98.8-7.7c-32.8,10.6-59,32.7-72.1,60.7c-16.3,34.9-13.3,77,7.5,107.2    c20.8,30.2,60.8,45.7,97.2,37.5c36.9-8.3,65.1-41.1,65.6-76.3c0.5-34.8-27.5-63.9-65.1-67.8c-16.6-1.7-32.5,3.3-42.4,13.2    c-10.7,10.7-13.7,27.6-7.1,39.3c3.4,5.9,9.8,10.4,17.1,11.9c6.4,1.3,12.4,0.2,16.9-3.2c3.3-2.5,8-1.9,10.5,1.4    c2.5,3.3,1.9,8-1.4,10.5c-7.8,6-18.4,8.2-29,6c-11.6-2.4-21.7-9.6-27.2-19.2c-10-17.7-5.9-41.7,9.6-57.2    c13.1-13.1,33.5-19.7,54.6-17.6c45.4,4.6,79.2,40.3,78.5,82.9c-0.3,20.9-8.5,41.6-23.1,58.3c-14.2,16.2-33.4,27.7-54.2,32.4    c-42.2,9.4-88.6-8.5-112.8-43.7c-23.8-34.5-27.2-82.5-8.8-122.1c14.8-31.7,44.3-56.8,81.1-68.6c38.2-12.3,78.5-9.1,110.7,8.9    c31.5,17.6,55.1,48.2,66.3,86c11,36.9,8.2,76.6-7.5,108.9c-15.7,32.3-44,58.6-79.7,74.1c-21.9,9.5-45.2,14.4-68,14.4    c-13.9,0-27.7-1.8-40.9-5.4c-80.2-21.9-124.7-78.1-128.8-162.6c-2.1-43.3,13.1-91,40.5-127.7c18.3-24.4,48.8-53,97.6-68.9    c-72.9,10.8-135.4,43.1-168.7,103.9c-42.4,77.3-34.2,181.6,27.2,244.9c38,39.1,90.8,62.1,144.9,68.9c58.3,7.4,119.8-3.8,169-36    C682,447.3,721.4,363.8,710.9,284.3z"/></g><g class="st3"><path class="st16" d="M489.1,865.9c-0.4,0-0.8,0-1.2-0.1c-4.1-0.7-9.6-0.9-14.8-1.1c-5.7-0.2-11.6-0.5-16.6-1.3    c-3.7-0.6-6.3-3.8-6.3-7.5c0.5-68.3,1.9-119.1,3.5-172.8c1.3-47.3,2.7-96.2,3.4-158.1c0-4.1,3.4-7.4,7.5-7.4c0,0,0.1,0,0.1,0    c4.1,0,7.5,3.4,7.4,7.6c-0.7,62.1-2.1,111-3.4,158.4c-1.5,51.9-2.9,101-3.4,165.7c2.7,0.2,5.6,0.3,8.5,0.4    c2.6,0.1,5.2,0.2,7.7,0.4c-1.7-85.3,0.8-144.2,3.5-206.4c1.6-36.6,3.2-74.4,4-118.4c0.1-4.1,3.5-7.4,7.6-7.4    c4.1,0.1,7.4,3.5,7.4,7.6c-0.7,44.2-2.4,82.2-4,118.8c-2.8,64-5.4,124.5-3.3,213.9c0.1,2.2-0.9,4.4-2.6,5.8    C492.7,865.3,490.9,865.9,489.1,865.9z"/></g></g></svg>